# Rhino

mtllib p1.mtl
usemtl Custom
v 0.20000000298023224 0.85000002384185791 -0.81914889812469482
v 0.20000000298023224 2.3499999046325684 -0.81914889812469482
v 0.2199999988079071 0.85000002384185791 -0.81914889812469482
v 0.2199999988079071 2.3499999046325684 -0.81914889812469482
v 0.2199999988079071 0.85000002384185791 -0.81914889812469482
v 0.2199999988079071 2.3499999046325684 -0.81914889812469482
v 0.2199999988079071 0.85000002384185791 -2.3191487789154053
v 0.2199999988079071 2.3499999046325684 -2.3191487789154053
v 0.2199999988079071 0.85000002384185791 -2.3191487789154053
v 0.2199999988079071 2.3499999046325684 -2.3191487789154053
v 0.20000000298023224 0.85000002384185791 -2.3191487789154053
v 0.20000000298023224 2.3499999046325684 -2.3191487789154053
v 0.20000000298023224 0.85000002384185791 -2.3191487789154053
v 0.20000000298023224 2.3499999046325684 -2.3191487789154053
v 0.20000000298023224 0.85000002384185791 -0.81914889812469482
v 0.20000000298023224 2.3499999046325684 -0.81914889812469482
v 0.20000000298023224 0.85000002384185791 -0.81914889812469482
v 0.2199999988079071 0.85000002384185791 -0.81914889812469482
v 0.2199999988079071 0.85000002384185791 -2.3191487789154053
v 0.20000000298023224 0.85000002384185791 -2.3191487789154053
v 0.20000000298023224 2.3499999046325684 -0.81914889812469482
v 0.2199999988079071 2.3499999046325684 -0.81914889812469482
v 0.2199999988079071 2.3499999046325684 -2.3191487789154053
v 0.20000000298023224 2.3499999046325684 -2.3191487789154053
vt 0 0
vt 0 0.98701202869415283
vt 0.074042074382305145 0
vt 0.074042074382305145 0.98701202869415283
vt 0.074042074382305145 0
vt 0.074042074382305145 0.98701202869415283
vt 0.5 0
vt 0.5 0.98701202869415283
vt 0.5 0
vt 0.5 0.98701202869415283
vt 0.57404208183288574 0
vt 0.57404208183288574 0.98701202869415283
vt 0.57404208183288574 0
vt 0.57404208183288574 0.98701202869415283
vt 1 0
vt 1 0.98701202869415283
vt 0.4934210479259491 1
vt 0.4934210479259491 0.98701298236846924
vt 0 0.98701298236846924
vt 0 1
vt 1 0.98701298236846924
vt 1 1
vt 0.50657892227172852 1
vt 0.50657892227172852 0.98701298236846924
vn 0 0 1
vn 0 0 1
vn 0 0 1
vn 0 0 1
vn 1 0 0
vn 1 0 0
vn 1 0 0
vn 1 0 0
vn 0 0 -1
vn 0 0 -1
vn 0 0 -1
vn 0 0 -1
vn -1 0 0
vn -1 0 0
vn -1 0 0
vn -1 0 0
vn 0 -1 0
vn 0 -1 0
vn 0 -1 0
vn 0 -1 0
vn 0 1 0
vn 0 1 0
vn 0 1 0
vn 0 1 0
f 18/18/18 17/17/17 20/20/20 19/19/19
f 24/24/24 21/21/21 22/22/22 23/23/23
f 1/1/1 3/3/3 4/4/4 2/2/2
f 5/5/5 7/7/7 8/8/8 6/6/6
f 9/9/9 11/11/11 12/12/12 10/10/10
f 13/13/13 15/15/15 16/16/16 14/14/14
