{"asset":{"version":"2.0","generator":"THREE.JS GLTFExporter"},"scenes":[{"nodes":[0],"name":"AuxScene"}],"scene":0,"nodes":[{"mesh":0}],"meshes":[{"primitives":[{"mode":4,"attributes":{"POSITION":0,"NORMAL":1},"material":0}]}],"materials":[{"pbrMetallicRoughness":{"baseColorFactor":[0.5019607843137255,0.5019607843137255,0.5019607843137255,1],"metallicFactor":0,"roughnessFactor":1}}],"accessors":[{"bufferView":0,"componentType":5126,"count":705,"max":[28.141132354736328,6.328793048858643,-0.17890499532222748],"min":[-16.058868408203125,0.3287929892539978,-44.57890701293945],"type":"VEC3"},{"bufferView":1,"componentType":5126,"count":705,"max":[0,1,0],"min":[0,1,0],"type":"VEC3"}],"bufferViews":[{"buffer":0,"byteOffset":0,"byteLength":8460,"byteStride":12,"target":34962},{"buffer":0,"byteOffset":8460,"byteLength":8460,"byteStride":12,"target":34962}],"buffers":[{"byteLength":16920,"uri":"data:application/octet-stream;base64,"}]}